<?xml version="1.0" encoding="UTF-8"?>
<svg id="Capa_2" data-name="Capa 2" xmlns="http://www.w3.org/2000/svg" version="1.1" viewBox="0 0 150.5 139.9">
  <defs>
    <style>
      .cls-1 {
        fill: #000;
      }

      .cls-1, .cls-2, .cls-3 {
        stroke-width: 0px;
      }

      .cls-2 {
        fill: #efeeeb;
      }

      .cls-3 {
        fill: #45a5db;
      }

      .cls-4, .cls-5 {
        isolation: isolate;
      }

      .cls-5 {
        fill: #1d1d1b;
        font-family: Aeonik-Bold, Aeonik;
        font-size: 20px;
        font-weight: 700;
      }
    </style>
  </defs>
  <g id="Capa_1-2" data-name="Capa 1-2">
    <g>
      <g>
        <path class="cls-1" d="M16.5,58.8h0C16.5,26.3,42.8,0,75.3,0h0c32.5,0,58.8,26.3,58.8,58.8h0c0,32.5-26.3,58.8-58.8,58.8h0c-32.5,0-58.8-26.3-58.8-58.8Z"/>
        <g>
          <path class="cls-3" d="M54.5,86.7h-10.9V30.9h10.9v55.7Z"/>
          <path class="cls-2" d="M75.6,58.9v-.3c2.6-2.6,5.2-5.3,7.9-7.9,5.1-5.3,10.2-10.7,15.2-15.9,3.1,3.1,5.7,5.7,8.3,8.3-5.2,5.1-10.4,10.3-15.7,15.6,5.3,5.3,10.6,10.4,15.6,15.4-2.7,2.7-5.3,5.3-8.3,8.3-4.8-5-10-10.3-15.1-15.6-2.6-2.6-5.2-5.3-7.9-7.9h0Z"/>
          <path class="cls-3" d="M83.4,50.8c-2.6,2.6-5.2,5.3-7.9,7.9-5.2-5.3-10.3-10.5-15.4-15.8,2.4-2.4,5-4.9,7.9-7.8,5.1,5.2,10.2,10.5,15.4,15.7h0Z"/>
          <path class="cls-3" d="M75.5,58.9c2.6,2.6,5.2,5.3,7.9,7.9-5.1,5.3-10.2,10.7-15.2,15.8-3.1-3.1-5.7-5.6-8-7.9,5.1-5.2,10.2-10.5,15.3-15.8h0Z"/>
        </g>
      </g>
      <g class="cls-4">
        <text class="cls-5" transform="translate(20.6 137.1)"><tspan x="0" y="0">Lux Awards</tspan></text>
      </g>
    </g>
  </g>
</svg>