<?xml version="1.0" encoding="UTF-8"?>
<svg id="Capa_1" data-name="Capa 1" xmlns="http://www.w3.org/2000/svg" version="1.1" viewBox="0 0 397.6 46">
  <defs>
    <style>
      .cls-1 {
        fill: #f08900;
      }

      .cls-1, .cls-2 {
        stroke-width: 0px;
      }

      .cls-2 {
        fill: #0066ba;
      }
    </style>
  </defs>
  <g>
    <g>
      <path class="cls-1" d="M39,17.9c-.4,0-.8-.1-1.2-.1-.7,0-1.4.1-2,.4-2,.8-3.4,2.7-3.4,5s1.4,4.2,3.4,5c.6.2,1.3.4,2,.4s.8,0,1.2-.1c2.4-.5,4.2-2.7,4.2-5.2s-1.8-4.7-4.2-5.2Z"/>
      <path class="cls-2" d="M38,15.6s0,0-.1,0c-1,0-1.9.2-2.8.5-.2,0-.5.2-.7.3-1.8-1.9-4.3-3-7-3s-3.5.5-5,1.4c0-.4-.2-.7-.3-1-.2-.7-.6-1.4-1.1-2.1,1.9-1,4-1.6,6.3-1.6s5.6.9,7.8,2.6c1.1.8,2,1.8,2.8,2.9Z"/>
      <path class="cls-2" d="M38,30.6c-2.4,3.4-6.3,5.5-10.6,5.5s-4.1-.5-5.8-1.4c0,0,0,0,0,0,.7-.9,1.1-1.9,1.4-3,1.3.7,2.8,1.1,4.4,1.1,2.7,0,5.1-1.1,7-3,.2.1.5.2.7.3.9.4,1.8.5,2.8.5s0,0,.1,0Z"/>
    </g>
    <path class="cls-2" d="M21.7,29.5h0c0,1.6-.5,3-1.3,4.2-.9,1.2-2.1,2.1-3.8,2.8-1.6.7-3.5,1-5.7,1-3.3,0-5.9-.8-7.8-2.5-1.9-1.7-2.9-4-2.9-6.9h5.7c0,1.5.5,2.7,1.5,3.6,1,.9,2.3,1.3,3.8,1.3s2.5-.4,3.3-1.1c.9-.7,1.3-1.7,1.3-2.9s-.4-2-1.3-2.6c-.9-.6-2.1-.9-3.8-.9h-2.7v-4.5h2.4c1.5,0,2.7-.3,3.5-1,.8-.7,1.2-1.6,1.2-2.7s-.4-1.9-1.1-2.5c-.8-.6-1.8-.9-3-.9s-2.5.4-3.3,1.1c-.9.7-1.3,1.7-1.3,3H.9c0-2.7.9-4.8,2.7-6.3,1.8-1.5,4.2-2.3,7.3-2.3s5.7.7,7.5,2c.3.2.5.4.8.7.7.7,1.2,1.5,1.5,2.4.2.7.4,1.5.4,2.3,0,1.6-.5,3-1.5,4-.3.3-.6.5-.9.8-.7.5-1.6.9-2.6,1.2-.2,0-.3,0-.5.1.2,0,.4,0,.6.1,1.5.4,2.8,1.2,3.8,2.1,1.1,1.1,1.7,2.6,1.7,4.4Z"/>
    <g>
      <path class="cls-2" d="M52.6,25v1.3h-.8c-.7,0-1-.3-1-.9-.2.3-.4.6-.7.7-.3.2-.6.2-1.1.2-.6,0-1.1-.1-1.5-.4-.4-.3-.6-.7-.6-1.2s.2-1,.6-1.4c.4-.3,1.1-.5,1.9-.5h1.1v-.3c0-.3,0-.4-.3-.6-.2-.1-.4-.2-.8-.2s-.5,0-.7.2c-.2.1-.3.3-.3.5h-1.5c0-.6.3-1,.8-1.3.5-.3,1-.5,1.8-.5s1.4.2,1.8.5c.4.3.6.8.6,1.5v1.9c0,.1,0,.2,0,.3,0,0,.1,0,.3,0h.2ZM50.6,23.9h-1.1c-.3,0-.6,0-.7.2-.2.1-.3.3-.3.5s0,.3.2.5c.1.1.3.2.6.2.4,0,.7-.1.9-.3.2-.2.3-.5.4-.9h0Z"/>
      <path class="cls-2" d="M58,21.3c.4.4.6,1.1.6,2v3h-1.5v-2.9c0-1-.4-1.4-1.1-1.4s-.7.1-.9.4c-.2.3-.3.6-.3,1.1v2.8h-1.5v-5.5h1.3v.7c.3-.2.6-.4.8-.6.3-.1.6-.2,1-.2.6,0,1.2.2,1.6.6ZM55.4,19.7c0,0-.1.2-.1.3h-.9v-.2c0-.3,0-.6.3-.8.2-.2.4-.3.7-.3s.3,0,.4,0c.1,0,.2.1.3.2,0,0,.1.1.2.1,0,0,.1,0,.2,0s.2,0,.3-.1c0,0,0-.2,0-.3h.9v.2c0,.3,0,.6-.3.8-.2.2-.4.3-.7.3s-.3,0-.4,0c-.1,0-.2-.1-.3-.2,0,0-.2-.1-.2-.1,0,0-.1,0-.2,0-.1,0-.2,0-.3.1Z"/>
      <path class="cls-2" d="M60.7,26c-.4-.2-.8-.6-1-1-.2-.4-.4-.9-.4-1.5s.1-1.1.4-1.5c.2-.4.6-.8,1-1,.4-.2,1-.3,1.5-.3s1.1.1,1.5.3c.4.2.8.6,1,1,.2.4.4.9.4,1.5s-.1,1.1-.4,1.5c-.2.4-.6.8-1,1-.4.2-1,.3-1.5.3s-1.1-.1-1.5-.3ZM63.2,24.7c.2-.3.4-.7.4-1.1s-.1-.9-.4-1.1c-.2-.3-.6-.4-1-.4s-.7.1-1,.4c-.2.3-.4.7-.4,1.1s.1.9.4,1.1c.2.3.6.4,1,.4s.8-.1,1-.4Z"/>
      <path class="cls-2" d="M67.2,24.4c0,.2.1.4.4.6s.5.2.8.2.6,0,.8-.2c.2-.1.3-.3.3-.4s0-.3-.1-.3c0,0-.2-.1-.4-.2-.2,0-.4,0-.8-.1-.5,0-.9-.1-1.2-.2-.3-.1-.6-.3-.8-.5-.2-.2-.3-.5-.3-.9s0-.7.3-1c.2-.3.5-.5.8-.6.4-.2.8-.2,1.2-.2.8,0,1.4.2,1.8.5.5.3.7.8.7,1.3h-1.4c0-.2-.1-.4-.3-.5-.2-.1-.4-.2-.8-.2s-.5,0-.7.2c-.2.1-.3.3-.3.4s0,.2.1.3c0,0,.2.1.4.1.2,0,.4,0,.8,0,.7,0,1.3.2,1.7.5.4.2.6.6.6,1.2s-.1.7-.3.9c-.2.3-.5.5-.9.6-.4.1-.8.2-1.3.2-.8,0-1.4-.2-1.9-.5-.5-.3-.7-.8-.8-1.4h1.4Z"/>
    </g>
  </g>
  <rect class="cls-2" x="81" y="1.2" width=".4" height="44.2"/>
  <g>
    <path class="cls-1" d="M117.9,17.9c-.4,0-.7-.1-1.1-.1-.7,0-1.4.1-2,.4-1.9.8-3.3,2.7-3.3,4.9s1.4,4.1,3.3,4.9c.6.2,1.3.4,2,.4s.8,0,1.1-.1c2.4-.5,4.1-2.6,4.1-5.2s-1.8-4.6-4.1-5.2Z"/>
    <path class="cls-2" d="M114,29.9c-.2,0-.5-.2-.7-.3-1.8,1.9-4.2,2.9-6.8,2.9-5.2,0-9.4-4.2-9.4-9.4s4.2-9.4,9.4-9.4,5,1.1,6.8,2.9c.2-.1.5-.2.7-.3.9-.4,1.8-.5,2.7-.5s0,0,.1,0c-2.4-3.4-6.2-5.4-10.4-5.4-7,0-12.7,5.7-12.7,12.7s5.7,12.7,12.7,12.7,8-2,10.4-5.4c0,0,0,0-.1,0-.9,0-1.9-.2-2.7-.5Z"/>
    <path class="cls-2" d="M130.1,23.1h0c0-2.9,2.2-5.3,5.3-5.3s3.1.6,4,1.6l-1.4,1.6c-.8-.7-1.6-1.1-2.6-1.1-1.7,0-3,1.4-3,3.2h0c0,1.8,1.2,3.2,3,3.2s1.9-.5,2.7-1.2l1.4,1.4c-1,1.1-2.2,1.8-4.2,1.8-3,0-5.2-2.3-5.2-5.2Z"/>
    <path class="cls-2" d="M141.7,23.1h0c0-2.9,2.3-5.3,5.4-5.3s5.4,2.3,5.4,5.2h0c0,2.9-2.3,5.3-5.4,5.3s-5.4-2.3-5.4-5.2ZM150.1,23.1h0c0-1.8-1.3-3.2-3.1-3.2s-3.1,1.4-3.1,3.2h0c0,1.8,1.3,3.2,3.1,3.2s3.1-1.4,3.1-3.2Z"/>
    <path class="cls-2" d="M155,26.7l1.3-1.6c.9.8,1.9,1.2,3,1.2s1.5-.4,1.5-1h0c0-.6-.3-.9-2.1-1.3-2.1-.5-3.4-1.1-3.4-3.1h0c0-1.9,1.5-3.1,3.6-3.1s2.7.5,3.8,1.3l-1.2,1.7c-.9-.6-1.8-1-2.6-1s-1.3.4-1.3.9h0c0,.7.4.9,2.2,1.4,2.1.5,3.2,1.3,3.2,3.1h0c0,2.1-1.5,3.2-3.7,3.2s-3.1-.5-4.3-1.6Z"/>
    <path class="cls-2" d="M168.9,20h-3.1v-2.1h8.4v2.1h-3.1v8.1h-2.2v-8.1Z"/>
    <path class="cls-2" d="M179.3,17.9h2.1l4.4,10.3h-2.3l-.9-2.3h-4.3l-.9,2.3h-2.3l4.4-10.3ZM181.7,23.9l-1.4-3.3-1.4,3.3h2.7Z"/>
    <path class="cls-2" d="M193.5,18h4c3.2,0,5.4,2.2,5.4,5.1h0c0,2.9-2.2,5.1-5.4,5.1h-4v-10.2ZM197.5,26.1c1.8,0,3.1-1.2,3.1-3h0c0-1.8-1.2-3.1-3.1-3.1h-1.7v6.1h1.7Z"/>
    <path class="cls-2" d="M205.6,18h7.7v2h-5.5v2.1h4.8v2h-4.8v2.1h5.5v2h-7.8v-10.2Z"/>
    <path class="cls-2" d="M217.1,18h2.2v8.1h5.1v2h-7.3v-10.2Z"/>
    <path class="cls-2" d="M232.3,26.7l1.3-1.6c.9.8,1.9,1.2,3,1.2s1.5-.4,1.5-1h0c0-.6-.3-.9-2.1-1.3-2.1-.5-3.4-1.1-3.4-3.1h0c0-1.9,1.5-3.1,3.6-3.1s2.7.5,3.8,1.3l-1.2,1.7c-.9-.6-1.8-1-2.6-1s-1.3.4-1.3.9h0c0,.7.4.9,2.2,1.4,2.1.5,3.2,1.3,3.2,3.1h0c0,2.1-1.5,3.2-3.7,3.2s-3.1-.5-4.3-1.6Z"/>
    <path class="cls-2" d="M242.9,23.1h0c0-2.9,2.3-5.3,5.4-5.3s5.4,2.3,5.4,5.2h0c0,2.9-2.3,5.3-5.4,5.3s-5.4-2.3-5.4-5.2ZM251.4,23.1h0c0-1.8-1.3-3.2-3.1-3.2s-3.1,1.4-3.1,3.2h0c0,1.8,1.3,3.2,3.1,3.2s3.1-1.4,3.1-3.2Z"/>
    <path class="cls-2" d="M256.5,18h2.2v8.1h5.1v2h-7.3v-10.2Z"/>
    <g>
      <path class="cls-2" d="M232.3,32.4h.4v1.7h2.2v-1.7h.4v3.9h-.4v-1.8h-2.2v1.8h-.4v-3.9Z"/>
      <path class="cls-2" d="M236.9,34.3h0c0-1.1.8-2,2-2s2,.9,2,2h0c0,1.1-.8,2-2,2s-2-.9-2-2ZM240.5,34.3h0c0-.9-.6-1.6-1.5-1.6s-1.5.7-1.5,1.6h0c0,.9.6,1.6,1.5,1.6s1.5-.7,1.5-1.6Z"/>
      <path class="cls-2" d="M243.3,32.8h-1.3v-.4h3.1v.4h-1.3v3.5h-.4v-3.5Z"/>
      <path class="cls-2" d="M246.9,32.4h2.8v.4h-2.4v1.3h2.1v.4h-2.1v1.4h2.4v.4h-2.8v-3.9Z"/>
      <path class="cls-2" d="M251.8,32.4h.4v3.5h2.2v.4h-2.6v-3.9Z"/>
      <path class="cls-2" d="M256.3,32.4h2.8v.4h-2.4v1.3h2.1v.4h-2.1v1.4h2.4v.4h-2.8v-3.9Z"/>
      <path class="cls-2" d="M260.9,35.7l.3-.3c.4.4.8.6,1.3.6s.9-.3.9-.7h0c0-.4-.2-.6-1-.8-.9-.2-1.3-.5-1.3-1.1h0c0-.6.5-1.1,1.3-1.1s1,.2,1.4.5l-.3.3c-.4-.3-.7-.4-1.1-.4s-.8.3-.8.6h0c0,.4.2.6,1.1.8.9.2,1.3.5,1.3,1.1h0c0,.7-.6,1.1-1.3,1.1s-1.1-.2-1.6-.6Z"/>
    </g>
    <g>
      <path class="cls-2" d="M394.9,19.2h0c0-.7.5-1.2,1.2-1.2s1.2.5,1.2,1.2h0c0,.7-.5,1.2-1.2,1.2s-1.2-.5-1.2-1.2M397.2,19.2h0c0-.6-.5-1.1-1.1-1.1s-1.1.5-1.1,1.1h0c0,.6.5,1.1,1.1,1.1s1.1-.5,1.1-1.1M395.6,18.5h.6c.2,0,.3,0,.4.1,0,0,.1.2.1.3h0c0,.2-.1.3-.3.4l.3.5h-.3l-.3-.4h-.2v.4h-.3v-1.3ZM396.2,19.2c.1,0,.2,0,.2-.2h0c0-.1,0-.2-.2-.2h-.3v.4h.3Z"/>
      <polygon class="cls-2" points="313 18 315.3 18 317.4 24.8 319.6 17.9 321.4 17.9 323.7 24.8 325.7 18 328 18 324.6 28.1 322.7 28.1 320.5 21.5 318.3 28.1 316.4 28.1 313 18"/>
      <polygon class="cls-2" points="332 24.1 328.2 18 330.7 18 333.1 22 335.5 18 337.9 18 334.2 24 334.2 28.1 332 28.1 332 24.1"/>
      <polygon class="cls-2" points="339.2 18 341.2 18 345.8 24.2 345.8 18 348 18 348 28.1 346.1 28.1 341.4 21.6 341.4 28.1 339.2 28.1 339.2 18"/>
      <path class="cls-2" d="M350.3,18h3.8c3.1,0,5.2,2.2,5.2,5h0c0,2.9-2.1,5.1-5.2,5.1h-3.8v-10.1ZM354.1,26.1c1.8,0,3-1.2,3-3h0c0-1.8-1.2-3.1-3-3.1h-1.7v6.1h1.7Z"/>
      <polygon class="cls-2" points="361.2 18 363.4 18 363.4 22 367.4 22 367.4 18 369.6 18 369.6 28.1 367.4 28.1 367.4 24 363.4 24 363.4 28.1 361.2 28.1 361.2 18"/>
      <path class="cls-2" d="M375.2,17.9h2l4.2,10.2h-2.3l-.9-2.3h-4.2l-.9,2.3h-2.2l4.2-10.2ZM377.5,23.8l-1.3-3.3-1.3,3.3h2.6Z"/>
      <polygon class="cls-2" points="382.9 18 385.2 18 387.8 22.2 390.4 18 392.8 18 392.8 28.1 390.6 28.1 390.6 21.5 387.8 25.8 387.8 25.8 385 21.5 385 28.1 382.9 28.1 382.9 18"/>
      <path class="cls-2" d="M292.1,15.5v15.2h16.8v-15.2h-16.8ZM299.2,19.3c.1,0,.2,0,.2-.2.2-.4.5-.6,1-.6s.9.3,1,.6c0,0,.1.2.2.2.6,0,1.1.4,1.1.7s0,.2-.2.2c-.5,0-.7.3-1.1.8-.4.6-1,1.5-1,1.5,0,0,0,0-.1,0s0,0-.1,0c0,0-.6-.9-1-1.5-.4-.6-.6-.7-1.1-.8-.1,0-.2,0-.2-.2,0-.3.5-.7,1.1-.7ZM297.2,20.4c.6,0,1.2.2,1.7,1,.2.4,1.1,1.7,1.1,1.7,0,0,0,0,0,0s0,0,0,0c0,0-.7,1.1-.7,1.2,0,0,0,0,0,0s0,0,0,0c0,0-1.3-2.2-1.6-2.6-.3-.4-.6-.8-1.2-.8s-.2,0-.2-.1c0-.2.3-.6,1-.6ZM299.2,27.6c-.4,0-.7-.2-.8-.5,0,0-2.3-3.6-2.6-4.1-.4-.6-.5-.8-.9-.8s-.2,0-.2-.2c0-.2.3-.5.9-.5s1,.2,1.5.9c0,0,1.1,1.8,2,3.1,0,0,0,0,.1,0s0,0,.1,0c.4-.7,2.4-3.8,2.6-4.1.5-.8,1.1-1,1.7-1s1,.4,1,.6,0,.1-.2.1c-.5,0-.9.3-1.2.8-.3.4-3.1,5-3.3,5.3-.2.3-.5.5-.8.5ZM306,22.3c-.4,0-.5.2-.9.8-.3.5-2.6,4.1-2.6,4.1-.2.3-.5.5-.8.5s-.7-.2-.8-.4c0,0,0,0,0-.1s0,0,0-.1c0,0,2.9-4.5,2.9-4.5.5-.7,1-.9,1.5-.9s.9.3.9.5,0,.2-.2.2Z"/>
    </g>
  </g>
</svg>