<?xml version="1.0" encoding="UTF-8"?>
<svg id="Capa_1" data-name="Capa 1" xmlns="http://www.w3.org/2000/svg" version="1.1" viewBox="0 0 530.6 38">
  <defs>
    <style>
      .cls-1 {
        fill: #fff;
        stroke-width: 0px;
      }
    </style>
  </defs>
  <g>
    <polygon class="cls-1" points="30.3 11.1 33.8 11.1 36.8 21.2 40.1 11 42.8 11 46.1 21.2 49.1 11.1 52.5 11.1 47.5 26.1 44.7 26.1 41.4 16.3 38.1 26.1 35.3 26.1 30.3 11.1"/>
    <polygon class="cls-1" points="58.4 20.1 52.8 11.1 56.6 11.1 60.1 17.1 63.6 11.1 67.3 11.1 61.7 20.1 61.7 26 58.4 26 58.4 20.1"/>
    <polygon class="cls-1" points="69.2 11.1 72.1 11.1 79 20.3 79 11.1 82.1 11.1 82.1 26 79.4 26 72.3 16.5 72.3 26 69.2 26 69.2 11.1"/>
    <path class="cls-1" d="M85.5,11.1h5.7c4.6,0,7.8,3.2,7.8,7.4h0c0,4.3-3.2,7.5-7.8,7.5h-5.7v-15ZM91.2,23.1c2.6,0,4.4-1.8,4.4-4.5h0c0-2.7-1.8-4.5-4.4-4.5h-2.5v9h2.5Z"/>
    <polygon class="cls-1" points="101.8 11.1 105 11.1 105 17 110.9 17 110.9 11.1 114.1 11.1 114.1 26 110.9 26 110.9 20 105 20 105 26 101.8 26 101.8 11.1"/>
    <path class="cls-1" d="M122.5,11h3l6.3,15.1h-3.4l-1.3-3.4h-6.2l-1.3,3.4h-3.3l6.3-15.1ZM125.9,19.8l-1.9-4.8-1.9,4.8h3.9Z"/>
    <polygon class="cls-1" points="133.9 11.1 137.3 11.1 141.2 17.4 145 11.1 148.5 11.1 148.5 26 145.3 26 145.3 16.3 141.2 22.6 141.1 22.6 137 16.3 137 26 133.9 26 133.9 11.1"/>
    <path class="cls-1" d="M157.4,18.6h0c0-4.3,3.2-7.8,7.7-7.8s4.2.7,5.7,2.1l-2,2.5c-1.1-1-2.1-1.5-3.8-1.5s-4.2,2.1-4.2,4.7h0c0,2.8,1.8,4.8,4.4,4.8s2.2-.3,3-.9v-2.1h-3.2v-2.8h6.3v6.5c-1.5,1.3-3.6,2.4-6.2,2.4-4.5,0-7.7-3.3-7.7-7.7"/>
    <path class="cls-1" d="M174.3,11.1h6.7c1.9,0,3.3.5,4.3,1.5.8.8,1.3,2,1.3,3.4h0c0,2.5-1.3,4-3.1,4.7l3.6,5.3h-3.8l-3.1-4.8h-2.5v4.8h-3.2v-15ZM180.7,18.3c1.6,0,2.5-.9,2.5-2.1h0c0-1.5-1-2.2-2.5-2.2h-3.2v4.3h3.3Z"/>
    <path class="cls-1" d="M194.3,11h3l6.3,15.1h-3.4l-1.3-3.4h-6.2l-1.3,3.4h-3.3l6.3-15.1ZM197.6,19.8l-1.9-4.8-1.9,4.8h3.9Z"/>
    <polygon class="cls-1" points="205.6 11.1 208.6 11.1 215.4 20.3 215.4 11.1 218.6 11.1 218.6 26 215.9 26 208.8 16.5 208.8 26 205.6 26 205.6 11.1"/>
    <path class="cls-1" d="M222,11.1h5.7c4.6,0,7.8,3.2,7.8,7.4h0c0,4.3-3.2,7.5-7.8,7.5h-5.7v-15ZM227.7,23.1c2.6,0,4.4-1.8,4.4-4.5h0c0-2.7-1.8-4.5-4.4-4.5h-2.5v9h2.5Z"/>
    <path class="cls-1" d="M236.6,12.8h0c0-.9.7-1.7,1.7-1.7s1.7.8,1.7,1.7h0c0,.9-.7,1.7-1.7,1.7s-1.7-.8-1.7-1.7M239.7,12.8h0c0-.8-.6-1.5-1.5-1.5s-1.5.7-1.5,1.5h0c0,.8.6,1.5,1.5,1.5s1.5-.7,1.5-1.5M237.5,11.9h.8c.4,0,.7.2.7.6s-.1.5-.4.6l.4.6h-.6l-.4-.5h-.2v.5h-.5v-1.8ZM238.3,12.8c.2,0,.3,0,.3-.2s0-.2-.3-.2h-.3v.4h.3Z"/>
  </g>
  <path class="cls-1" d="M0,7.4v22.5h24.4V7.4H0ZM7.6,14.9c.8,0,1.7.4,2.4,1.5.4.6,1.6,2.5,1.6,2.5,0,0,0,0,0,0s0,0,0,.1c0,0-1,1.6-1.1,1.7,0,0,0,0-.1,0s0,0-.1,0c0,0-1.9-3.1-2.3-3.7-.4-.6-.9-1.1-1.7-1.1s-.2,0-.2-.2c0-.2.4-.8,1.5-.8ZM10.3,13.2c.2,0,.3,0,.3-.2.2-.5.8-.9,1.5-.9s1.3.4,1.5.9c0,.1.2.2.3.2.9,0,1.6.6,1.6,1s-.1.3-.3.3c-.7.1-1,.4-1.5,1.2-.6.9-1.4,2.1-1.4,2.2,0,0-.1.1-.2.1s0,0-.1-.1c0,0-.8-1.3-1.4-2.2-.5-.8-.9-1-1.5-1.2-.2,0-.3-.1-.3-.3,0-.4.7-1,1.6-1ZM10.4,25.2c-.5,0-1-.3-1.2-.7,0,0-3.2-5.1-3.7-5.8-.6-.9-.8-1.2-1.3-1.2s-.3-.1-.3-.2c0-.3.5-.8,1.4-.8s1.4.3,2.1,1.3c0,0,1.6,2.6,2.8,4.4,0,0,0,.1.2.1s.1,0,.1-.1c.6-.9,3.4-5.4,3.8-5.9.7-1.1,1.6-1.5,2.4-1.5s1.5.6,1.5.8,0,.2-.2.2c-.8,0-1.3.5-1.7,1.1-.4.6-4.5,7.1-4.7,7.6-.3.4-.7.7-1.2.7ZM20.1,17.5c-.5,0-.7.3-1.3,1.2-.4.7-3.7,5.8-3.7,5.8-.2.4-.7.7-1.2.7s-.9-.3-1.1-.6c0,0,0-.1,0-.2s0-.1,0-.2c0,0,4.1-6.5,4.1-6.5.7-1.1,1.4-1.3,2.1-1.3s1.4.5,1.4.8,0,.2-.3.2Z"/>
  <g>
    <path class="cls-1" d="M316.6,11.1c-.5-.1-1.1-.2-1.7-.2-1,0-2,.2-2.9.6-2.9,1.1-4.9,3.9-4.9,7.2s2,6,4.9,7.2c.9.4,1.9.6,2.9.6s1.1,0,1.7-.2c3.5-.8,6.1-3.9,6.1-7.6s-2.6-6.8-6.1-7.6Z"/>
    <path class="cls-1" d="M310.9,28.6c-.4-.1-.7-.3-1-.5-2.6,2.8-6.2,4.3-10,4.3-7.6,0-13.8-6.2-13.8-13.8s6.2-13.8,13.8-13.8,7.4,1.6,10,4.3c.3-.2.7-.3,1-.5,1.3-.5,2.6-.8,4-.8s.1,0,.2,0c-3.5-5-9.1-7.9-15.2-7.9-10.3,0-18.6,8.4-18.6,18.6s8.4,18.6,18.6,18.6,11.7-2.9,15.2-7.9c0,0-.1,0-.2,0-1.4,0-2.7-.3-4-.8Z"/>
    <path class="cls-1" d="M334.5,18.7h0c0-4.3,3.2-7.8,7.8-7.8s4.5.9,5.9,2.3l-2.1,2.4c-1.2-1-2.3-1.7-3.8-1.7-2.5,0-4.3,2.1-4.3,4.6h0c0,2.6,1.8,4.7,4.3,4.7s2.8-.7,3.9-1.7l2.1,2.1c-1.5,1.6-3.2,2.7-6.1,2.7-4.4,0-7.7-3.4-7.7-7.7Z"/>
    <path class="cls-1" d="M351.4,18.7h0c0-4.3,3.3-7.8,8-7.8s7.9,3.4,7.9,7.7h0c0,4.3-3.3,7.8-8,7.8s-7.9-3.4-7.9-7.7ZM363.9,18.7h0c0-2.6-1.9-4.7-4.5-4.7s-4.5,2.1-4.5,4.6h0c0,2.6,1.9,4.7,4.5,4.7s4.5-2.1,4.5-4.7Z"/>
    <path class="cls-1" d="M371.1,23.9l1.9-2.3c1.3,1.1,2.8,1.8,4.5,1.8s2.2-.5,2.2-1.4h0c0-.9-.5-1.3-3-1.9-3-.8-4.9-1.6-4.9-4.6h0c0-2.8,2.2-4.5,5.2-4.5s4,.7,5.5,1.9l-1.7,2.5c-1.3-.9-2.6-1.5-3.9-1.5s-1.9.6-1.9,1.3h0c0,1,.6,1.3,3.2,2,3,.8,4.7,1.9,4.7,4.5h0c0,3-2.3,4.7-5.5,4.7s-4.5-.8-6.3-2.4Z"/>
    <path class="cls-1" d="M391.4,14.2h-4.5v-3h12.4v3h-4.5v11.9h-3.3v-11.9Z"/>
    <path class="cls-1" d="M406.7,11.1h3l6.4,15h-3.4l-1.4-3.3h-6.3l-1.4,3.3h-3.3l6.4-15ZM410.1,19.9l-2-4.8-2,4.8h4Z"/>
    <path class="cls-1" d="M427.5,11.2h5.8c4.7,0,7.9,3.2,7.9,7.4h0c0,4.2-3.2,7.5-7.9,7.5h-5.8v-14.9ZM433.3,23.1c2.7,0,4.5-1.8,4.5-4.5h0c0-2.7-1.8-4.5-4.5-4.5h-2.5v9h2.5Z"/>
    <path class="cls-1" d="M445.3,11.2h11.3v2.9h-8v3h7v2.9h-7v3.1h8.1v2.9h-11.4v-14.9Z"/>
    <path class="cls-1" d="M462,11.2h3.3v11.9h7.4v3h-10.7v-14.9Z"/>
    <path class="cls-1" d="M484.4,23.9l1.9-2.3c1.3,1.1,2.8,1.8,4.5,1.8s2.2-.5,2.2-1.4h0c0-.9-.5-1.3-3-1.9-3-.8-4.9-1.6-4.9-4.6h0c0-2.8,2.2-4.5,5.2-4.5s4,.7,5.5,1.9l-1.7,2.5c-1.3-.9-2.6-1.5-3.9-1.5s-1.9.6-1.9,1.3h0c0,1,.6,1.3,3.2,2,3,.8,4.7,1.9,4.7,4.5h0c0,3-2.3,4.7-5.5,4.7s-4.5-.8-6.3-2.4Z"/>
    <path class="cls-1" d="M499.9,18.7h0c0-4.3,3.3-7.8,8-7.8s7.9,3.4,7.9,7.7h0c0,4.3-3.3,7.8-8,7.8s-7.9-3.4-7.9-7.7ZM512.3,18.7h0c0-2.6-1.9-4.7-4.5-4.7s-4.5,2.1-4.5,4.6h0c0,2.6,1.9,4.7,4.5,4.7s4.5-2.1,4.5-4.7Z"/>
    <path class="cls-1" d="M519.9,11.2h3.3v11.9h7.4v3h-10.7v-14.9Z"/>
    <g>
      <path class="cls-1" d="M484.4,32.3h.6v2.5h3.3v-2.5h.6v5.7h-.6v-2.6h-3.3v2.6h-.6v-5.7Z"/>
      <path class="cls-1" d="M491.1,35.2h0c0-1.6,1.2-3,2.9-3s2.9,1.4,2.9,2.9h0c0,1.6-1.2,3-2.9,3s-2.9-1.4-2.9-2.9ZM496.3,35.2h0c0-1.3-.9-2.4-2.3-2.4s-2.2,1-2.2,2.3h0c0,1.3.9,2.4,2.3,2.4s2.2-1,2.2-2.3Z"/>
      <path class="cls-1" d="M500.5,32.9h-1.9v-.6h4.5v.6h-1.9v5.1h-.7v-5.1Z"/>
      <path class="cls-1" d="M505.7,32.3h4.1v.6h-3.5v1.9h3.1v.6h-3.1v2h3.5v.6h-4.2v-5.7Z"/>
      <path class="cls-1" d="M512.9,32.3h.6v5.1h3.2v.6h-3.9v-5.7Z"/>
      <path class="cls-1" d="M519.5,32.3h4.1v.6h-3.5v1.9h3.1v.6h-3.1v2h3.5v.6h-4.2v-5.7Z"/>
      <path class="cls-1" d="M526.3,37.2l.4-.5c.6.5,1.2.8,2,.8s1.3-.4,1.3-1h0c0-.5-.3-.8-1.5-1.1-1.3-.3-1.9-.7-1.9-1.6h0c0-.9.8-1.6,1.9-1.6s1.4.2,2,.7l-.4.5c-.5-.4-1.1-.6-1.6-.6s-1.2.4-1.2.9h0c0,.6.3.9,1.5,1.1,1.3.3,1.9.7,1.9,1.6h0c0,1-.8,1.6-1.9,1.6s-1.6-.3-2.3-.9Z"/>
    </g>
  </g>
</svg>