<?xml version="1.0" encoding="UTF-8"?>
<svg id="Capa_1" data-name="Capa 1" xmlns="http://www.w3.org/2000/svg" version="1.1" xmlns:xlink="http://www.w3.org/1999/xlink" viewBox="0 0 267.6 39.2">
  <defs>
    <style>
      .cls-1 {
        fill: #fff;
        stroke-width: 0px;
      }
    </style>
  </defs>
  <image width="260" height="160" transform="translate(20.6 -730.7) scale(1.6 1.6)" xlink:href="new-grand-aeropuerto-logo-blanco (1)-1.png"/>
  <g>
    <g>
      <polygon class="cls-1" points="33.8 4.5 37.7 4.5 41 15.8 44.7 4.4 47.8 4.4 51.4 15.8 54.8 4.5 58.5 4.5 53 21.3 49.9 21.3 46.2 10.4 42.5 21.3 39.4 21.3 33.8 4.5"/>
      <polygon class="cls-1" points="65.1 14.6 58.9 4.5 63.1 4.5 67 11.2 70.9 4.5 75 4.5 68.8 14.5 68.8 21.1 65.1 21.1 65.1 14.6"/>
      <polygon class="cls-1" points="77.1 4.5 80.4 4.5 88.1 14.7 88.1 4.5 91.6 4.5 91.6 21.1 88.5 21.1 80.6 10.6 80.6 21.1 77.1 21.1 77.1 4.5"/>
      <path class="cls-1" d="M95.4,4.5h6.3c5.1,0,8.7,3.6,8.7,8.3h0c0,4.7-3.5,8.3-8.7,8.3h-6.3V4.4h0ZM101.7,17.8c2.9,0,4.9-2,4.9-5h0c0-3-2-5-4.9-5h-2.8v10.1h2.8Z"/>
      <polygon class="cls-1" points="113.4 4.5 117 4.5 117 11 123.7 11 123.7 4.5 127.2 4.5 127.2 21.1 123.7 21.1 123.7 14.4 117 14.4 117 21.1 113.4 21.1 113.4 4.5"/>
      <path class="cls-1" d="M136.6,4.4h3.3l7,16.8h-3.8l-1.5-3.8h-6.9l-1.5,3.8h-3.7l7-16.8h0ZM140.4,14.2l-2.2-5.4-2.2,5.4h4.4,0Z"/>
      <polygon class="cls-1" points="149.2 4.5 153.1 4.5 157.4 11.5 161.7 4.5 165.6 4.5 165.6 21.1 162 21.1 162 10.3 157.4 17.4 157.3 17.4 152.8 10.4 152.8 21.1 149.2 21.1 149.2 4.5"/>
      <path class="cls-1" d="M175.5,12.9h0c0-4.8,3.6-8.7,8.5-8.7s4.7.8,6.4,2.3l-2.3,2.8c-1.3-1.1-2.4-1.7-4.3-1.7s-4.7,2.3-4.7,5.2h0c0,3.1,2,5.3,5,5.3s2.5-.3,3.4-1v-2.4h-3.6v-3.2h7.1v7.2c-1.7,1.4-4,2.6-6.9,2.6-5,0-8.6-3.6-8.6-8.6"/>
      <path class="cls-1" d="M194.3,4.5h7.4c2,0,3.7.6,4.7,1.7.9.9,1.4,2.3,1.4,3.8h0c0,2.7-1.4,4.4-3.5,5.2l4,5.9h-4.2l-3.5-5.3h-2.8v5.3h-3.6V4.4h0ZM201.5,12.6c1.7,0,2.8-1,2.8-2.3h0c0-1.7-1.1-2.4-2.8-2.4h-3.5v4.8h3.6,0Z"/>
      <path class="cls-1" d="M216.6,4.4h3.3l7,16.8h-3.8l-1.5-3.8h-6.9l-1.5,3.8h-3.7l7-16.8h0ZM220.4,14.2l-2.2-5.4-2.2,5.4h4.4Z"/>
      <polygon class="cls-1" points="229.3 4.5 232.6 4.5 240.2 14.7 240.2 4.5 243.7 4.5 243.7 21.1 240.7 21.1 232.8 10.6 232.8 21.1 229.3 21.1 229.3 4.5"/>
      <path class="cls-1" d="M247.6,4.5h6.3c5.1,0,8.7,3.6,8.7,8.3h0c0,4.7-3.5,8.3-8.7,8.3h-6.3V4.4h0ZM253.9,17.8c2.9,0,4.9-2,4.9-5h0c0-3-2-5-4.9-5h-2.8v10.1h2.8Z"/>
      <path class="cls-1" d="M263.8,6.5h0c0-1.1.8-2,1.9-2s1.9.9,1.9,1.9h0c0,1.1-.8,2-1.9,2s-1.9-.9-1.9-1.9M267.3,6.5h0c0-1-.7-1.7-1.7-1.7s-1.7.8-1.7,1.7h0c0,1,.7,1.7,1.7,1.7s1.7-.8,1.7-1.7M264.8,5.4h1c.5,0,.8.2.8.7s-.2.5-.4.6l.5.7h-.7l-.4-.6h-.2v.6h-.5v-2h0ZM265.8,6.4c.2,0,.3,0,.3-.2s0-.2-.3-.2h-.4v.5s.4,0,.4,0Z"/>
    </g>
    <path class="cls-1" d="M0,.4v25h27.2V.4H0ZM11.5,6.9c.2,0,.3,0,.4-.2.2-.6.9-1,1.7-1s1.4.4,1.7,1c0,.2.2.2.4.2,1,0,1.7.7,1.7,1.1s-.2.3-.4.3c-.8.2-1.1.4-1.7,1.3-.6,1-1.5,2.3-1.6,2.4,0,0-.2.2-.2.2,0,0,0,0-.2-.2,0,0-.9-1.4-1.6-2.4-.6-.9-1-1.2-1.7-1.3-.2,0-.4-.2-.4-.3,0-.4.8-1.1,1.7-1.1h0ZM8.5,8.8c.9,0,1.9.4,2.7,1.7.4.6,1.7,2.7,1.7,2.8h0v.2s-1.1,1.8-1.2,1.9h-.3s-2.2-3.5-2.6-4.1c-.5-.7-1-1.2-1.9-1.2s-.2,0-.2-.2c0-.2.5-.9,1.7-.9h0ZM11.7,20.3c-.6,0-1.1-.3-1.4-.8,0,0-3.6-5.7-4.1-6.5-.7-1.1-.9-1.4-1.4-1.4s-.3-.2-.3-.2c0-.3.5-.8,1.5-.8s1.6.3,2.3,1.4c0,0,1.8,2.9,3.2,5,0,0,0,.2.2.2s.2,0,.2-.2c.7-1.1,3.8-6,4.2-6.6.8-1.2,1.7-1.7,2.7-1.7s1.7.7,1.7.9,0,.2-.2.2c-.9,0-1.4.5-1.9,1.2s-5,8-5.3,8.4c-.3.5-.8.8-1.4.8ZM22.4,11.7c-.6,0-.8.3-1.4,1.4-.5.8-4.1,6.5-4.1,6.5-.3.5-.8.8-1.4.8s-1.1-.3-1.3-.7c0,0,0,0,0-.2s0-.2,0-.2l4.6-7.2c.8-1.2,1.6-1.4,2.3-1.4s1.5.5,1.5.8,0,.2-.3.2Z"/>
  </g>
  <g>
    <path class="cls-1" d="M33.6,33.9h0c0-2.8,2.1-5.2,5.2-5.2s3,.6,3.9,1.5l-1.4,1.6c-.8-.7-1.5-1.1-2.5-1.1-1.7,0-2.9,1.4-2.9,3.1h0c0,1.7,1.2,3.1,2.9,3.1s1.8-.4,2.6-1.2l1.4,1.4c-1,1.1-2.1,1.8-4.1,1.8-2.9,0-5.1-2.3-5.1-5.1Z"/>
    <path class="cls-1" d="M43.7,33.9h0c0-2.8,2.2-5.2,5.3-5.2s5.3,2.3,5.3,5.1h0c0,2.8-2.2,5.2-5.3,5.2s-5.3-2.3-5.3-5.1ZM52,33.9h0c0-1.7-1.2-3.1-3-3.1s-3,1.4-3,3.1h0c0,1.7,1.2,3.1,3,3.1s3-1.4,3-3.1Z"/>
    <path class="cls-1" d="M55.4,37.4l1.3-1.5c.9.7,1.8,1.2,3,1.2s1.4-.4,1.4-.9h0c0-.6-.3-.9-2-1.3-2-.5-3.3-1.1-3.3-3h0c0-1.8,1.4-3,3.5-3s2.7.5,3.7,1.3l-1.1,1.6c-.9-.6-1.7-1-2.6-1s-1.3.4-1.3.9h0c0,.7.4.9,2.1,1.3,2,.5,3.1,1.2,3.1,3h0c0,2-1.5,3.1-3.6,3.1s-3-.5-4.2-1.6Z"/>
    <path class="cls-1" d="M67.3,30.9h-3v-2h8.2v2h-3v7.9h-2.2v-7.9Z"/>
    <path class="cls-1" d="M76.2,28.8h2l4.2,10h-2.3l-.9-2.2h-4.2l-.9,2.2h-2.2l4.2-10ZM78.5,34.7l-1.3-3.2-1.3,3.2h2.6Z"/>
    <path class="cls-1" d="M88.3,28.9h3.9c3.1,0,5.3,2.1,5.3,4.9h0c0,2.8-2.2,5-5.3,5h-3.9v-9.9ZM90.4,30.9v6h1.7c1.8,0,3-1.2,3-3h0c0-1.8-1.2-3-3-3h-1.7Z"/>
    <path class="cls-1" d="M99.3,28.9h7.5v1.9h-5.3v2h4.7v1.9h-4.7v2.1h5.4v1.9h-7.5v-9.9Z"/>
    <path class="cls-1" d="M108.8,28.9h2.2v7.9h4.9v2h-7.1v-9.9Z"/>
    <path class="cls-1" d="M121.1,37.4l1.3-1.5c.9.7,1.8,1.2,3,1.2s1.4-.4,1.4-.9h0c0-.6-.3-.9-2-1.3-2-.5-3.3-1.1-3.3-3h0c0-1.8,1.4-3,3.5-3s2.7.5,3.7,1.3l-1.1,1.6c-.9-.6-1.7-1-2.6-1s-1.3.4-1.3.9h0c0,.7.4.9,2.1,1.3,2,.5,3.1,1.2,3.1,3h0c0,2-1.5,3.1-3.6,3.1s-3-.5-4.2-1.6Z"/>
    <path class="cls-1" d="M130.4,33.9h0c0-2.8,2.2-5.2,5.3-5.2s5.3,2.3,5.3,5.1h0c0,2.8-2.2,5.2-5.3,5.2s-5.3-2.3-5.3-5.1ZM138.7,33.9h0c0-1.7-1.2-3.1-3-3.1s-3,1.4-3,3.1h0c0,1.7,1.2,3.1,3,3.1s3-1.4,3-3.1Z"/>
    <path class="cls-1" d="M142.9,28.9h2.2v7.9h4.9v2h-7.1v-9.9Z"/>
    <path class="cls-1" d="M155.9,28.9h2.2v7.9h4.9v2h-7.1v-9.9Z"/>
    <path class="cls-1" d="M164.7,28.9h2.2v9.9h-2.2v-9.9Z"/>
    <path class="cls-1" d="M169.4,28.9h2.3l2.6,4.2,2.6-4.2h2.3v9.9h-2.2v-6.5l-2.8,4.2h0l-2.8-4.2v6.4h-2.1v-9.9Z"/>
    <path class="cls-1" d="M185,28.8h2l4.2,10h-2.3l-.9-2.2h-4.2l-.9,2.2h-2.2l4.2-10ZM187.3,34.7l-1.3-3.2-1.3,3.2h2.6Z"/>
    <path class="cls-1" d="M200.5,28.8h2l4.2,10h-2.3l-.9-2.2h-4.2l-.9,2.2h-2.2l4.2-10ZM202.8,34.7l-1.3-3.2-1.3,3.2h2.6Z"/>
    <path class="cls-1" d="M208.3,28.9h2.2v9.9h-2.2v-9.9Z"/>
    <path class="cls-1" d="M213,28.9h4.5c1.3,0,2.2.3,2.9,1,.6.6.8,1.3.8,2.3h0c0,1.6-.9,2.6-2.1,3.1l2.4,3.5h-2.5l-2.1-3.2h-1.7v3.2h-2.2v-9.9ZM217.4,33.7c1.1,0,1.7-.6,1.7-1.4h0c0-1-.6-1.4-1.7-1.4h-2.2v2.8h2.2Z"/>
    <path class="cls-1" d="M223.2,28.9h4c2.4,0,3.8,1.4,3.8,3.4h0c0,2.3-1.8,3.5-4,3.5h-1.7v3h-2.2v-9.9ZM227.1,33.9c1.1,0,1.7-.7,1.7-1.5h0c0-1-.7-1.5-1.8-1.5h-1.7v3h1.7Z"/>
    <path class="cls-1" d="M232.2,33.9h0c0-2.8,2.2-5.2,5.3-5.2s5.3,2.3,5.3,5.1h0c0,2.8-2.2,5.2-5.3,5.2s-5.3-2.3-5.3-5.1ZM240.5,33.9h0c0-1.7-1.2-3.1-3-3.1s-3,1.4-3,3.1h0c0,1.7,1.2,3.1,3,3.1s3-1.4,3-3.1Z"/>
    <path class="cls-1" d="M244.7,28.9h4.5c1.3,0,2.2.3,2.9,1,.6.6.8,1.3.8,2.3h0c0,1.6-.9,2.6-2.1,3.1l2.4,3.5h-2.5l-2.1-3.2h-1.7v3.2h-2.2v-9.9ZM249.1,33.7c1.1,0,1.7-.6,1.7-1.4h0c0-1-.6-1.4-1.7-1.4h-2.2v2.8h2.2Z"/>
    <path class="cls-1" d="M257.2,30.9h-3v-2h8.2v2h-3v7.9h-2.2v-7.9Z"/>
  </g>
</svg>