<?xml version="1.0" encoding="UTF-8"?>
<svg id="Capa_1" data-name="Capa 1" xmlns="http://www.w3.org/2000/svg" version="1.1" viewBox="0 0 302 86.2">
  <defs>
    <style>
      .cls-1 {
        fill: #000;
        stroke-width: 0px;
      }
    </style>
  </defs>
  <path class="cls-1" d="M27.2,35.5c-1.7,3.8-3.7,8.4-4.5,10.2-.8,1.8-1.5,3.3-1.5,3.4s-1.5.1-3.4.3c-1.9.1-5.3.4-7.5.5-2.3.2-5.4.4-7,.5s-2.9.2-3.1.2h-.3s.2.3.2.3c.1.1,1.7,1.5,3.4,3,1.7,1.6,4,3.6,5.1,4.5,6.3,5.6,7.8,6.9,7.8,7,0,0,.4-1.1-2.7,11.3-1.3,5.2-2.3,9.4-2.3,9.4,0,0,4.3-2.5,9.6-5.6,5.3-3.1,9.6-5.6,9.7-5.6,0,0,2,1.2,4.3,2.7,2.3,1.5,5.8,3.6,7.7,4.8s4,2.5,4.7,2.9c.7.4,1.2.8,1.3.8s0,0,0-.2c0-.2-2.1-9.5-3.9-17.8-.4-2-.8-3.7-.8-3.7,0,0,3.2-2.8,15-12.7,1.3-1.1,1.3-1.1,1.1-1.1,0,0-5-.5-11-1.1s-10.9-1.1-11-1.1c0,0-.3-.6-1-2.2-.5-1.2-2.1-5.1-3.5-8.6s-2.8-6.9-3.1-7.6c-.3-.7-.5-1.3-.5-1.3,0,0-1.4,3-3,6.8Z"/>
  <path class="cls-1" d="M87.6,20.2c-1.7,3.8-3.7,8.4-4.5,10.2-.8,1.8-1.5,3.3-1.5,3.4s-1.5.1-3.4.3c-1.9.1-5.3.4-7.5.5-2.3.2-5.4.4-7,.5s-2.9.2-3.1.2h-.3s.2.3.2.3c.1.1,1.7,1.5,3.4,3,1.7,1.6,4,3.6,5.1,4.5,6.3,5.6,7.8,6.9,7.8,7,0,0,.4-1.1-2.7,11.3-1.3,5.2-2.3,9.4-2.3,9.4,0,0,4.3-2.5,9.6-5.6,5.3-3.1,9.6-5.6,9.7-5.6,0,0,2,1.2,4.3,2.7,2.3,1.5,5.8,3.6,7.7,4.8s4,2.5,4.7,2.9c.7.4,1.2.8,1.3.8s0,0,0-.2c0-.2-2.1-9.5-3.9-17.8-.4-2-.8-3.7-.8-3.7,0,0,3.2-2.8,15-12.7,1.3-1.1,1.3-1.1,1.1-1.1,0,0-5-.5-11-1.1s-10.9-1.1-11-1.1c0,0-.3-.6-1-2.2-.5-1.2-2.1-5.1-3.5-8.6s-2.8-6.9-3.1-7.6c-.3-.7-.5-1.3-.5-1.3,0,0-1.4,3-3,6.8Z"/>
  <path class="cls-1" d="M148,6.8c-1.7,3.8-3.7,8.4-4.5,10.2-.8,1.8-1.5,3.3-1.5,3.4s-1.5.1-3.4.3c-1.9.1-5.3.4-7.5.5-2.3.2-5.4.4-7,.5s-2.9.2-3.1.2h-.3s.2.3.2.3c.1.1,1.7,1.5,3.4,3,1.7,1.6,4,3.6,5.1,4.5,6.3,5.6,7.8,6.9,7.8,7,0,0,.4-1.1-2.7,11.3-1.3,5.2-2.3,9.4-2.3,9.4,0,0,4.3-2.5,9.6-5.6,5.3-3.1,9.6-5.6,9.7-5.6,0,0,2,1.2,4.3,2.7,2.3,1.5,5.8,3.6,7.7,4.8s4,2.5,4.7,2.9c.7.4,1.2.8,1.3.8s0,0,0-.2c0-.2-2.1-9.5-3.9-17.8-.4-2-.8-3.7-.8-3.7,0,0,3.2-2.8,15-12.7,1.3-1.1,1.3-1.1,1.1-1.1,0,0-5-.5-11-1.1s-10.9-1.1-11-1.1c0,0-.3-.6-1-2.2-.5-1.2-2.1-5.1-3.5-8.6s-2.8-6.9-3.1-7.6c-.3-.7-.5-1.3-.5-1.3,0,0-1.4,3-3,6.8Z"/>
  <path class="cls-1" d="M208.4,20.2c-1.7,3.8-3.7,8.4-4.5,10.2-.8,1.8-1.5,3.3-1.5,3.4s-1.5.1-3.4.3c-1.9.1-5.3.4-7.5.5-2.3.2-5.4.4-7,.5s-2.9.2-3.1.2h-.3s.2.3.2.3c.1.1,1.7,1.5,3.4,3,1.7,1.6,4,3.6,5.1,4.5,6.3,5.6,7.8,6.9,7.8,7,0,0,.4-1.1-2.7,11.3-1.3,5.2-2.3,9.4-2.3,9.4,0,0,4.3-2.5,9.6-5.6,5.3-3.1,9.6-5.6,9.7-5.6,0,0,2,1.2,4.3,2.7,2.3,1.5,5.8,3.6,7.7,4.8s4,2.5,4.7,2.9c.7.4,1.2.8,1.3.8s0,0,0-.2c0-.2-2.1-9.5-3.9-17.8-.4-2-.8-3.7-.8-3.7,0,0,3.2-2.8,15-12.7,1.3-1.1,1.3-1.1,1.1-1.1,0,0-5-.5-11-1.1s-10.9-1.1-11-1.1c0,0-.3-.6-1-2.2-.5-1.2-2.1-5.1-3.5-8.6s-2.8-6.9-3.1-7.6c-.3-.7-.5-1.3-.5-1.3,0,0-1.4,3-3,6.8Z"/>
  <path class="cls-1" d="M268.8,35.5c-1.7,3.8-3.7,8.4-4.5,10.2-.8,1.8-1.5,3.3-1.5,3.4s-1.5.1-3.4.3c-1.9.1-5.3.4-7.5.5-2.3.2-5.4.4-7,.5s-2.9.2-3.1.2h-.3s.2.3.2.3c.1.1,1.7,1.5,3.4,3,1.7,1.6,4,3.6,5.1,4.5,6.3,5.6,7.8,6.9,7.8,7,0,0,.4-1.1-2.7,11.3-1.3,5.2-2.3,9.4-2.3,9.4,0,0,4.3-2.5,9.6-5.6,5.3-3.1,9.6-5.6,9.7-5.6,0,0,2,1.2,4.3,2.7,2.3,1.5,5.8,3.6,7.7,4.8s4,2.5,4.7,2.9c.7.4,1.2.8,1.3.8s0,0,0-.2c0-.2-2.1-9.5-3.9-17.8-.4-2-.8-3.7-.8-3.7,0,0,3.2-2.8,15-12.7,1.3-1.1,1.3-1.1,1.1-1.1,0,0-5-.5-11-1.1s-10.9-1.1-11-1.1c0,0-.3-.6-1-2.2-.5-1.2-2.1-5.1-3.5-8.6s-2.8-6.9-3.1-7.6c-.3-.7-.5-1.3-.5-1.3,0,0-1.4,3-3,6.8Z"/>
</svg>