<?xml version="1.0" encoding="UTF-8"?>
<svg id="Capa_1" data-name="Capa 1" xmlns="http://www.w3.org/2000/svg" version="1.1" viewBox="0 0 166.3 213.9">
  <defs>
    <style>
      .cls-1 {
        fill: #000;
      }

      .cls-1, .cls-2 {
        stroke-width: 0px;
      }

      .cls-2 {
        fill: #34e0a1;
      }
    </style>
  </defs>
  <path class="cls-2" d="M83.2.5h0c45.9,0,83.2,37.3,83.2,83.2v116.1c0,7.8-6.3,14.1-14.1,14.1H14.1C6.3,213.9,0,207.6,0,199.8v-116.1C0,37.7,37.3.5,83.2.5Z"/>
  <g>
    <path class="cls-1" d="M17.8,198.5v-5.7l14.8-15.3c3.4-3.5,5.2-6.1,5.2-9.9s-2.6-6.5-6.3-6.5-6.4,2.7-6.7,6.5h-7.1c.1-7.9,5.4-13.4,13.9-13.4s13.5,5.3,13.5,13-2.4,9.5-7.1,14.4l-9.4,9.9h17.1v6.9h-27.8Z"/>
    <path class="cls-1" d="M50,176.8c0-15.1,8-22.6,17.4-22.6s17.1,7.5,17.1,22.6-7.8,22.6-17.1,22.6-17.4-7.5-17.4-22.6ZM76.9,176.8c0-10.7-4.2-15.6-9.6-15.6s-9.9,5-9.9,15.6,4.5,15.6,9.9,15.6,9.6-5,9.6-15.6Z"/>
    <path class="cls-1" d="M87.9,198.5v-5.7l14.8-15.3c3.4-3.5,5.2-6.1,5.2-9.9s-2.6-6.5-6.3-6.5-6.4,2.7-6.7,6.5h-7.1c.1-7.9,5.4-13.4,13.9-13.4s13.5,5.3,13.5,13-2.4,9.5-7.1,14.4l-9.4,9.9h17.1v6.9h-27.8Z"/>
    <path class="cls-1" d="M136.6,198.5v-10.9h-19.2v-4.3l18.7-28.2h8v26.7h4.7v5.8h-4.7v10.9h-7.5ZM125.9,181.8h10.7v-12.5c0-1.2.1-2.9.2-4.2l-11,16.7Z"/>
  </g>
  <g>
    <g>
      <path class="cls-1" d="M66.4,82.5c-3.4,0-6.2,2.8-6.2,6.2s2.8,6.2,6.2,6.2,6.2-2.8,6.2-6.2-2.8-6.2-6.2-6.2Z"/>
      <path class="cls-1" d="M101.5,82.5c-3.4,0-6.2,2.8-6.2,6.2s2.8,6.2,6.2,6.2,6.2-2.8,6.2-6.2c0-3.4-2.8-6.2-6.2-6.2Z"/>
      <path class="cls-1" d="M113.3,75.8l5.7-6.2h-12.7c-6.4-4.3-14-6.9-22.4-6.9s-16,2.5-22.3,6.9h-12.7l5.7,6.2c-3.5,3.2-5.7,7.8-5.7,12.9,0,9.7,7.8,17.5,17.5,17.5s8.8-1.8,11.9-4.7l5.6,6.1,5.6-6.1c3.1,2.9,7.3,4.7,11.9,4.7,9.7,0,17.5-7.8,17.5-17.5,0-5.1-2.2-9.7-5.7-12.9ZM66.4,100.6c-6.5,0-11.9-5.3-11.9-11.9s5.3-11.9,11.9-11.9,11.9,5.3,11.9,11.9-5.3,11.9-11.9,11.9ZM84,88.4c0-7.8-5.7-14.5-13.2-17.4,4-1.7,8.5-2.6,13.2-2.6s9.1.9,13.2,2.6c-7.5,2.9-13.2,9.6-13.2,17.4ZM101.5,100.6c-6.5,0-11.9-5.3-11.9-11.9s5.3-11.9,11.9-11.9,11.9,5.3,11.9,11.9-5.3,11.9-11.9,11.9Z"/>
    </g>
    <path class="cls-1" d="M83.2,33.5c26.4-.2,50.6,20.6,50.7,50.4,0,28-20.9,50.5-50.1,50.9-28.9.4-50.9-22.5-51-50.9,0-27.8,22.4-50.3,50.5-50.5ZM83.2,39.8c-24.5,0-44.1,19.6-44.1,43.9,0,24.7,19.5,44.6,43.5,44.6,24.7,0,44.7-19.7,44.6-44,0-24.8-19.6-44.5-44.1-44.5Z"/>
    <path class="cls-1" d="M137.4,87.6c-2.9-12.3,3.5-28,9.4-29.9,3.7,7.2-2.1,26.1-9.4,29.9Z"/>
    <path class="cls-1" d="M30.7,107.6c-7.9-5.9-12.7-13.7-15.3-23.3,8.1,0,18.9,13.7,20.4,24.7-1.9-.5-3.5-1-5.2-1.5h.1Z"/>
    <path class="cls-1" d="M134.9,107.8c4-1.4,8.1-2.9,12.9-4.6-3.8,11.6-16.9,22.2-25.5,20.4,2.8-3.7,5.3-7.1,7.9-10.4,1.5-1.9,3.3-3.7,4.9-5.5h-.1Z"/>
    <path class="cls-1" d="M30.6,107.5c3.3,3.7,6.8,7.4,10,11.3,1.2,1.4,1.8,3.3,2.8,5-7.4,2.6-21.9-10.4-25-20.5,4.6,1.6,8.5,3,12.4,4.4,0,0-.1-.1-.1-.1Z"/>
    <path class="cls-1" d="M135.1,107.7c-1.4.4-2.9.8-4.4,1.3.9-10.8,11.6-23.8,20.3-24.9-2.8,10-7.4,18.1-16,23.7,0,0,.1-.1.1-.1Z"/>
    <path class="cls-1" d="M28.6,87.2c-7-2.8-13-22.4-9-29.5,6.7,3,12.3,19.9,9,29.5Z"/>
    <path class="cls-1" d="M127,126.9c-3.5,5.7-15.8,9.7-20.6,6.7,4-5.4,15.1-9,20.6-6.7Z"/>
    <path class="cls-1" d="M38.6,126.4c8.8-1.2,15.3,1.9,21.6,6.8-4.8,3.4-17-.3-21.6-6.8Z"/>
    <path class="cls-1" d="M106.7,138.7c-4.3,3.5-13.6,2.9-17.2-1.2,5.1-3.2,11.9-2.8,17.2,1.2Z"/>
    <path class="cls-1" d="M59.7,138.9c4.9-4,11.4-4.5,17.2-1.5-3.2,4.1-11.8,5-17.2,1.5Z"/>
    <path class="cls-1" d="M87.9,140c-2.5,1.3-3.8,2.6-5.1,2.5-1,0-1.9-1.8-2.9-2.7,1.1-1.1,2.1-2.8,3.3-2.9,1.1-.1,2.4,1.5,4.7,3.2Z"/>
  </g>
</svg>